<?xml version="1.0" encoding="UTF-8" standalone="no"?>
<!DOCTYPE svg PUBLIC "-//W3C//DTD SVG 1.1//EN" "http://www.w3.org/Graphics/SVG/1.1/DTD/svg11.dtd">
<svg width="100%" height="100%" viewBox="0 0 24 24" version="1.1" xmlns="http://www.w3.org/2000/svg" xmlns:xlink="http://www.w3.org/1999/xlink" xml:space="preserve" xmlns:serif="http://www.serif.com/" style="fill-rule:evenodd;clip-rule:evenodd;stroke-linejoin:round;stroke-miterlimit:2;">
    <rect x="0" y="0" width="24" height="24" style="fill:none;fill-rule:nonzero;"/>
    <path d="M4,5C4,4.45 4.45,4 5,4L10,4C10.55,4 11,3.55 11,3C11,2.45 10.55,2 10,2L4,2C2.9,2 2,2.9 2,4L2,10C2,10.55 2.45,11 3,11C3.55,11 4,10.55 4,10L4,5ZM9.61,13.49L6.65,17.19C6.39,17.52 6.62,18 7.04,18L17,18C17.41,18 17.65,17.53 17.4,17.2L15.4,14.53C15.2,14.26 14.8,14.26 14.6,14.53L12.97,16.71L10.39,13.49C10.19,13.24 9.81,13.24 9.61,13.49ZM17,8.5C17,7.67 16.33,7 15.5,7C14.67,7 14,7.67 14,8.5C14,9.33 14.67,10 15.5,10C16.33,10 17,9.33 17,8.5ZM20,2L14,2C13.45,2 13,2.45 13,3C13,3.55 13.45,4 14,4L19,4C19.55,4 20,4.45 20,5L20,10C20,10.55 20.45,11 21,11C21.55,11 22,10.55 22,10L22,4C22,2.9 21.1,2 20,2ZM20,19C20,19.55 19.55,20 19,20L14,20C13.45,20 13,20.45 13,21C13,21.55 13.45,22 14,22L20,22C21.1,22 22,21.1 22,20L22,14C22,13.45 21.55,13 21,13C20.45,13 20,13.45 20,14L20,19ZM3,13C2.45,13 2,13.45 2,14L2,20C2,21.1 2.9,22 4,22L10,22C10.55,22 11,21.55 11,21C11,20.45 10.55,20 10,20L5,20C4.45,20 4,19.55 4,19L4,14C4,13.45 3.55,13 3,13Z" style="fill-rule:nonzero;"/>
    <g transform="matrix(1.042,1.042,-0.0707107,0.0707107,0.86558,-1.09928)">
        <rect x="1" y="2" width="21" height="20" style="fill:rgb(255,0,0);"/>
    </g>
</svg>
