<?xml version="1.0" standalone="no"?>
<!DOCTYPE svg PUBLIC "-//W3C//DTD SVG 20010904//EN"
 "http://www.w3.org/TR/2001/REC-SVG-20010904/DTD/svg10.dtd">
<svg version="1.0" xmlns="http://www.w3.org/2000/svg"
 width="500.000000pt" height="500.000000pt" viewBox="0 0 500.000000 500.000000"
 preserveAspectRatio="xMidYMid meet">
<metadata>
Created by potrace 1.14, written by Peter Selinger 2001-2017
</metadata>
<g transform="translate(0.000000,500.000000) scale(0.100000,-0.100000)"
fill="#000000" stroke="none">
<path d="M2225 4849 c-33 -11 -90 -26 -126 -34 -37 -8 -82 -23 -100 -34 -19
-10 -52 -24 -74 -31 -22 -7 -49 -21 -60 -30 -11 -10 -39 -26 -62 -35 -24 -10
-43 -21 -43 -26 0 -5 -15 -16 -32 -25 -18 -9 -42 -25 -53 -35 -11 -10 -49 -43
-85 -74 -35 -30 -86 -81 -113 -112 -26 -32 -59 -71 -73 -88 -41 -50 -73 -98
-94 -144 -11 -23 -29 -54 -40 -68 -11 -14 -20 -33 -20 -43 0 -9 -13 -42 -29
-72 -16 -30 -32 -76 -36 -104 -4 -27 -16 -71 -27 -99 -40 -101 -42 -509 -4
-630 9 -27 23 -91 31 -141 8 -49 23 -110 34 -135 10 -24 24 -71 31 -104 7 -33
20 -73 30 -90 10 -16 23 -57 30 -90 7 -33 20 -74 31 -91 10 -17 25 -62 33
-100 8 -38 24 -90 35 -115 11 -25 25 -79 31 -119 6 -40 19 -103 30 -139 15
-49 21 -100 23 -201 2 -120 0 -139 -18 -169 -11 -18 -27 -47 -36 -64 -9 -16
-30 -37 -46 -46 -17 -9 -46 -25 -64 -36 -30 -17 -53 -19 -179 -20 -137 0 -148
1 -200 27 -30 15 -66 29 -80 33 -22 5 -76 52 -147 127 -12 13 -28 39 -34 58
-6 19 -23 59 -36 87 -24 50 -25 59 -21 200 4 136 6 153 31 204 15 31 27 60 27
66 0 15 61 68 113 98 44 25 55 27 120 23 47 -3 88 -13 118 -28 62 -30 79 -23
79 35 0 32 -10 63 -34 110 -42 78 -82 119 -161 165 -60 35 -60 35 -185 35
-110 0 -129 -3 -160 -21 -19 -12 -53 -27 -75 -34 -22 -7 -54 -25 -72 -39 -65
-53 -183 -180 -183 -198 0 -6 -12 -28 -26 -49 -15 -21 -35 -66 -44 -99 -10
-33 -25 -78 -34 -100 -22 -59 -22 -427 0 -505 9 -30 24 -91 34 -135 10 -44 29
-102 44 -129 14 -27 26 -57 26 -66 0 -10 14 -34 30 -55 17 -21 30 -43 30 -50
0 -7 16 -32 35 -55 19 -23 35 -45 35 -49 0 -11 138 -145 180 -176 19 -14 54
-34 76 -45 23 -11 47 -27 54 -35 7 -8 35 -22 62 -30 27 -8 64 -23 81 -34 18
-11 58 -24 90 -30 32 -6 88 -20 124 -31 36 -11 80 -20 98 -20 19 0 39 -8 49
-19 17 -18 17 -20 -3 -40 -12 -12 -27 -21 -35 -21 -7 0 -20 -7 -27 -17 -8 -9
-34 -25 -59 -36 -25 -11 -53 -26 -62 -34 -9 -9 -45 -23 -80 -33 -35 -10 -83
-26 -108 -36 -33 -13 -76 -18 -165 -18 -105 -1 -124 2 -156 20 -20 12 -53 27
-75 34 -21 7 -50 23 -64 35 -14 12 -36 28 -50 35 -25 13 -46 30 -111 95 -19
19 -40 35 -47 35 -21 0 -24 -40 -4 -73 11 -17 27 -56 37 -84 9 -29 21 -55 26
-59 5 -3 19 -24 30 -46 35 -68 209 -229 271 -250 18 -6 42 -19 53 -29 11 -9
54 -26 95 -37 41 -11 95 -28 120 -37 65 -24 462 -18 530 9 25 9 76 24 114 32
37 8 80 23 95 33 14 10 43 23 64 29 20 6 51 22 68 36 17 14 37 26 44 26 28 0
204 156 310 275 33 37 74 82 90 100 17 19 55 62 85 97 77 88 126 134 190 176
51 35 60 37 130 37 70 0 79 -3 131 -37 62 -41 162 -141 275 -275 42 -50 297
-303 336 -334 18 -15 49 -33 68 -41 19 -8 41 -22 49 -31 7 -9 32 -22 55 -28
22 -6 53 -20 67 -30 15 -10 58 -25 95 -33 38 -8 89 -23 114 -32 68 -27 465
-33 530 -9 25 9 79 26 120 37 41 11 84 28 95 37 11 10 35 23 53 29 62 21 236
182 271 250 11 22 25 43 30 47 6 3 18 31 28 63 9 31 25 68 35 81 22 29 23 45
3 61 -13 11 -21 8 -50 -21 -75 -75 -145 -127 -215 -160 -25 -11 -63 -30 -85
-42 -35 -19 -54 -22 -160 -21 -89 0 -132 5 -165 18 -25 10 -73 26 -106 35 -34
10 -74 27 -88 39 -15 11 -40 23 -56 27 -16 3 -34 13 -41 21 -7 9 -29 24 -50
34 -20 11 -39 26 -42 34 -8 21 25 46 60 46 17 0 60 9 96 20 36 11 92 25 124
31 32 6 72 19 90 30 17 11 54 26 81 34 27 8 55 22 62 30 7 8 31 24 54 35 22
11 57 31 76 45 42 31 180 165 180 176 0 4 16 26 35 49 19 23 35 48 35 55 0 7
14 29 30 50 17 21 30 45 30 55 0 9 11 38 25 64 14 26 34 86 45 134 11 48 27
112 35 142 11 40 15 107 15 253 0 187 -1 202 -24 260 -14 34 -30 82 -36 107
-7 25 -18 52 -25 60 -7 8 -21 31 -30 50 -46 90 -188 227 -260 250 -22 7 -56
22 -75 34 -31 18 -50 21 -160 21 -125 0 -125 0 -185 -35 -79 -46 -119 -87
-161 -165 -24 -47 -34 -78 -34 -110 0 -58 17 -65 79 -35 30 15 71 25 118 28
65 4 76 2 120 -23 73 -42 92 -63 131 -145 34 -73 35 -79 40 -222 l4 -147 -31
-64 c-17 -35 -31 -71 -31 -80 0 -30 -141 -173 -180 -182 -14 -4 -50 -18 -80
-33 -52 -25 -63 -27 -200 -27 l-145 0 -63 36 c-49 28 -70 48 -100 95 l-37 59
2 140 c2 106 7 156 23 206 11 36 24 99 30 139 6 40 20 94 31 119 11 25 27 77
35 115 8 38 23 83 33 100 11 17 24 58 31 91 7 33 20 74 30 90 10 17 23 57 30
90 7 33 21 80 31 104 11 25 26 88 35 140 8 53 22 116 30 141 36 103 35 527 -1
613 -8 20 -22 68 -30 106 -8 37 -26 90 -40 116 -14 26 -25 56 -25 65 0 10 -9
29 -20 43 -11 14 -28 45 -39 68 -10 24 -28 53 -40 63 -11 11 -21 24 -21 30 0
6 -12 26 -27 43 -16 17 -48 56 -73 87 -25 32 -74 82 -110 112 -36 30 -76 65
-90 78 -14 13 -40 31 -57 40 -18 9 -33 20 -33 25 0 5 -19 16 -42 26 -24 9 -52
25 -63 35 -11 9 -38 23 -60 30 -22 7 -55 21 -74 31 -18 11 -64 26 -102 34 -38
8 -95 24 -128 35 -53 18 -85 20 -273 19 -184 0 -221 -3 -273 -20z m493 -139
c31 -11 89 -25 127 -30 41 -6 81 -19 98 -31 15 -11 47 -26 70 -33 23 -7 60
-25 81 -39 21 -15 43 -27 49 -27 5 0 24 -12 42 -27 19 -16 55 -44 82 -63 26
-19 73 -60 103 -90 30 -30 71 -77 90 -103 19 -27 47 -63 63 -82 15 -18 27 -37
27 -42 0 -6 12 -28 27 -49 14 -21 32 -58 39 -82 7 -24 22 -54 33 -68 11 -14
23 -49 27 -82 3 -31 18 -93 32 -137 23 -72 26 -95 25 -235 0 -127 -5 -171 -23
-240 -12 -47 -26 -123 -30 -168 -6 -51 -17 -100 -30 -124 -11 -22 -27 -72 -34
-112 -8 -40 -23 -87 -34 -106 -11 -19 -25 -61 -31 -94 -6 -32 -20 -73 -31 -91
-11 -18 -25 -59 -31 -91 -6 -32 -20 -76 -31 -98 -11 -22 -24 -71 -30 -110 -5
-39 -20 -104 -34 -145 -24 -69 -26 -88 -31 -360 -6 -339 6 -549 35 -607 11
-21 24 -68 31 -104 6 -36 20 -77 30 -91 11 -14 24 -44 30 -66 6 -23 18 -47 27
-54 8 -7 24 -30 35 -52 26 -49 180 -204 222 -222 18 -7 41 -23 51 -34 10 -11
35 -26 55 -32 20 -7 48 -22 62 -34 15 -12 48 -25 73 -28 25 -4 65 -16 89 -28
31 -16 71 -24 152 -30 61 -4 111 -8 113 -8 1 -1 2 -7 2 -15 0 -16 -13 -21 -79
-31 -25 -4 -70 -16 -100 -27 -82 -30 -329 -29 -416 1 -33 11 -91 25 -130 31
-38 6 -81 19 -95 29 -14 10 -48 25 -76 35 -29 9 -60 26 -69 36 -10 11 -24 20
-30 20 -28 0 -210 169 -335 310 -17 19 -57 64 -88 100 -94 106 -205 211 -238
226 -17 7 -36 20 -43 28 -35 42 -280 47 -330 7 -14 -12 -40 -27 -56 -34 -27
-13 -182 -162 -263 -255 -18 -20 -46 -53 -63 -72 -115 -133 -306 -310 -334
-310 -6 0 -20 -9 -30 -20 -10 -11 -40 -27 -66 -34 -26 -8 -61 -24 -76 -35 -16
-12 -58 -25 -98 -31 -38 -6 -97 -20 -130 -31 -87 -30 -334 -31 -416 -1 -30 11
-75 23 -100 27 -66 10 -79 15 -79 31 0 8 1 14 3 15 1 0 52 4 114 8 80 6 122
14 150 28 21 11 63 26 93 32 30 7 64 20 75 30 11 10 36 24 56 30 20 7 45 21
55 32 10 11 33 27 51 34 39 17 195 171 219 217 9 18 27 46 40 61 13 16 24 38
24 50 0 12 11 39 25 59 14 21 32 68 39 105 8 37 24 95 36 128 20 54 22 86 27
335 6 330 -6 542 -35 616 -12 28 -24 80 -27 115 -4 35 -18 88 -31 117 -12 29
-28 78 -33 108 -6 31 -20 71 -31 89 -11 18 -25 59 -31 91 -6 33 -21 77 -34 99
-12 22 -26 65 -30 95 -4 30 -18 79 -32 108 -15 35 -28 85 -33 141 -5 48 -17
107 -25 131 -21 58 -37 263 -29 365 4 44 15 105 25 135 10 30 23 87 29 125 7
42 20 84 35 105 13 19 26 51 30 70 4 19 18 47 30 62 13 15 28 43 35 62 6 19
17 37 25 40 8 3 23 23 34 45 27 52 210 235 262 262 22 11 42 26 45 34 3 8 21
19 40 25 19 7 47 22 62 35 15 12 43 26 62 30 19 4 51 18 70 31 22 14 63 27
108 34 41 7 90 19 110 27 91 38 346 40 450 3z m-1880 -2117 c2 -7 -9 -17 -25
-23 -15 -5 -37 -15 -48 -22 -11 -6 -41 -22 -67 -36 -47 -24 -148 -140 -148
-170 0 -7 -12 -34 -27 -60 l-28 -47 0 -210 c0 -201 1 -212 23 -249 13 -22 29
-56 36 -77 16 -46 44 -84 117 -157 72 -72 122 -109 162 -118 18 -3 45 -15 60
-26 38 -27 169 -41 324 -35 114 5 125 7 178 37 76 43 90 37 82 -40 -4 -33 -16
-87 -27 -119 -11 -33 -20 -80 -20 -104 0 -30 -10 -62 -29 -99 -16 -30 -34 -73
-40 -96 -9 -32 -18 -43 -37 -48 -35 -9 -126 3 -199 25 -33 10 -87 22 -120 26
-33 4 -87 20 -120 36 -33 16 -67 29 -76 29 -9 0 -33 14 -54 30 -21 17 -43 30
-50 30 -36 0 -255 210 -255 245 0 8 -14 30 -30 48 -17 19 -33 50 -37 68 -3 19
-17 50 -29 69 -15 22 -27 63 -34 110 -6 41 -20 104 -31 140 -16 52 -21 95 -22
215 -2 135 0 155 20 197 12 26 27 72 33 102 6 31 22 69 36 85 13 16 24 34 24
41 0 16 148 160 163 160 7 0 39 13 72 30 53 27 69 30 139 27 53 -1 81 -6 84
-14z m3547 -13 c33 -17 65 -30 72 -30 15 0 163 -144 163 -160 0 -7 11 -25 24
-41 14 -16 30 -54 36 -85 7 -32 21 -78 33 -103 29 -67 29 -293 -1 -401 -12
-41 -26 -109 -33 -150 -6 -47 -19 -88 -34 -110 -13 -19 -26 -51 -30 -70 -4
-19 -20 -50 -36 -68 -16 -18 -29 -39 -29 -47 0 -34 -219 -245 -255 -245 -7 0
-29 -13 -50 -30 -21 -16 -45 -30 -54 -30 -9 0 -43 -13 -76 -29 -33 -16 -85
-32 -115 -35 -30 -4 -97 -18 -149 -32 -153 -40 -201 -32 -216 37 -4 17 -20 56
-36 86 -20 37 -29 70 -29 102 -1 25 -10 71 -20 101 -11 30 -23 83 -26 117 -9
80 4 87 81 43 53 -30 64 -32 178 -37 155 -6 286 8 324 35 15 11 43 23 60 27
38 8 93 48 166 122 69 68 94 103 112 154 8 23 25 58 38 78 21 34 22 46 22 241
0 201 0 206 -26 255 -14 28 -29 61 -32 75 -7 29 -122 160 -140 160 -7 0 -29
11 -48 24 -20 14 -48 28 -63 32 -14 3 -29 10 -32 15 -12 21 12 29 84 29 65 -1
86 -5 137 -30z"/>
<path d="M2031 3133 c-22 -9 -111 -102 -111 -116 0 -6 -14 -32 -30 -56 l-30
-44 0 -167 0 -167 30 -44 c16 -24 30 -50 30 -56 0 -7 24 -36 52 -65 l53 -53
100 0 100 0 53 53 c28 29 52 58 52 65 0 6 14 32 30 56 l30 44 0 167 0 167 -30
44 c-16 24 -30 50 -30 56 0 7 -24 36 -52 65 l-53 53 -90 2 c-49 1 -96 0 -104
-4z"/>
<path d="M2781 3133 c-22 -9 -111 -102 -111 -116 0 -6 -14 -32 -30 -56 l-30
-44 0 -167 0 -167 30 -44 c16 -24 30 -50 30 -56 0 -7 24 -36 52 -65 l53 -53
100 0 100 0 53 53 c28 29 52 58 52 65 0 6 14 32 30 56 l30 44 0 167 0 167 -30
44 c-16 24 -30 50 -30 56 0 7 -24 36 -52 65 l-53 53 -90 2 c-49 1 -96 0 -104
-4z"/>
</g>
</svg>
